<?xml version="1.0" standalone="no"?><!DOCTYPE svg PUBLIC "-//W3C//DTD SVG 1.1//EN" "http://www.w3.org/Graphics/SVG/1.1/DTD/svg11.dtd"><svg t="1526091249518" class="icon" style="" viewBox="0 0 1024 1024" version="1.1" xmlns="http://www.w3.org/2000/svg" p-id="969" xmlns:xlink="http://www.w3.org/1999/xlink" width="32" height="32"><defs><style type="text/css"></style></defs><path d="M954.976974 478.616682 66.115813 478.616682c-18.87079 0-34.186613 14.294564-34.186613 31.907711s15.315824 31.907711 34.186613 31.907711l888.860137 0c18.905582 0 34.186613-14.294564 34.186613-31.907711S973.881532 478.616682 954.976974 478.616682z" p-id="970"></path><path d="M95.744621 353.402889c17.622356 0 31.907711-14.285355 31.907711-31.907711L127.652332 159.539576c0-17.593703 14.314007-31.907711 31.907711-31.907711l223.844138 0c17.622356 0 31.907711-14.285355 31.907711-31.907711s-14.285355-31.907711-31.907711-31.907711L159.560042 63.816444c-52.782134 0-95.723132 42.940998-95.723132 95.723132L63.836911 321.495178C63.836911 339.116511 78.122265 353.402889 95.744621 353.402889z" p-id="971"></path><path d="M383.40418 893.419989 159.560042 893.419989c-17.593703 0-31.907711-14.314007-31.907711-31.908734L127.652332 704.210673c0-17.622356-14.285355-31.907711-31.907711-31.907711s-31.907711 14.285355-31.907711 31.907711l0 157.300582c0 52.782134 42.940998 95.723132 95.723132 95.723132l223.844138 0c17.622356 0 31.907711-14.285355 31.907711-31.907711S401.026536 893.419989 383.40418 893.419989z" p-id="972"></path><path d="M925.347143 672.302963c-17.622356 0-31.907711 14.285355-31.907711 31.907711l0 157.300582c0 17.593703-14.314007 31.908734-31.908734 31.908734L639.23073 893.419989c-17.622356 0-31.907711 14.285355-31.907711 31.907711s14.285355 31.907711 31.907711 31.907711l222.300992 0c52.782134 0 95.723132-42.940998 95.723132-95.723132L957.254853 704.210673C957.254853 686.588317 942.969499 672.302963 925.347143 672.302963z" p-id="973"></path><path d="M639.23073 127.630842l222.300992 0c17.593703 0 31.908734 14.314007 31.908734 31.907711L893.440455 321.495178c0 17.622356 14.285355 31.907711 31.907711 31.907711s31.907711-14.285355 31.907711-31.907711L957.255877 159.539576c0-52.782134-42.940998-95.723132-95.723132-95.723132L639.23073 63.816444c-17.622356 0-31.907711 14.285355-31.907711 31.907711S621.608374 127.630842 639.23073 127.630842z" p-id="974"></path></svg>